<svg id="eye-svg" width="834" height="622" viewBox="0 0 834 622" fill="none" xmlns="http://www.w3.org/2000/svg">
<g id="whole-eye">
<path id="Vector" d="M420.637 0C198.948 0 111.641 125.855 11.7147 270.455C4.58776 280.769 4.11732 294.309 10.5158 305.089L11.2584 306.34C111.375 475.021 198.611 622 420.637 622C641.77 622 738.88 448.668 823.526 305.085C829.893 294.285 829.428 280.797 822.336 270.46C737.968 147.482 640.734 0 420.637 0Z" fill="#585858"/>
<mask id="mask0_2_2" style="mask-type:alpha" maskUnits="userSpaceOnUse" x="16" y="51" width="802" height="519">
<path id="Vector_2" d="M420.56 51.8745C206.371 51.8745 120.336 153.988 24.0824 272.438C15.0593 283.541 14.4859 299.32 22.6731 311.053C119.499 449.821 205.327 569.875 420.56 569.875C632.285 569.875 727.86 431.763 809.477 313.821L811.391 311.056C819.533 299.291 818.955 283.559 809.978 272.418L809.477 271.795C727.859 170.496 632.285 51.8745 420.56 51.8745Z" fill="#C4C4C4"/>
</mask>
<g mask="url(#mask0_2_2)">
<path id="Vector_3" d="M420.56 51.8745C206.371 51.8745 120.336 153.988 24.0824 272.438C15.0593 283.541 14.4859 299.32 22.6731 311.053C119.499 449.821 205.327 569.875 420.56 569.875C632.285 569.875 727.86 431.763 809.477 313.821L811.391 311.056C819.533 299.291 818.955 283.559 809.978 272.418L809.477 271.795C727.859 170.496 632.285 51.8745 420.56 51.8745Z" fill="white"/>
<g id="Eye">
<g id="Iris">
<ellipse id="Ellipse 2" cx="418.556" cy="263.875" rx="297.706" ry="287" fill="#AAD3E0"/>
<path id="Star 2" d="M418.556 -23.1255L432.451 42.4283L454.441 -21.0329L460.038 45.6575L489.802 -14.7858L487.019 52.0687L524.124 -4.47516L513.003 61.5686L556.907 9.74863L537.609 74.0186L587.672 27.6781L560.48 89.2371L615.972 49.0519L581.28 107.002L641.392 73.5583L599.708 127.055L663.563 100.84L615.494 149.103L682.162 130.499L628.409 172.824L696.916 162.103L638.263 197.873L707.612 195.191L644.914 223.885L714.092 229.28L648.263 250.479L716.262 263.875L648.263 277.27L714.092 298.469L644.914 303.864L707.612 332.558L638.263 329.876L696.916 365.646L628.409 354.925L682.162 397.25L615.494 378.646L663.563 426.909L599.708 400.694L641.392 454.191L581.28 420.747L615.972 478.697L560.48 438.512L587.672 500.071L537.609 453.73L556.907 518L513.003 466.18L524.124 532.224L487.019 475.68L489.802 542.535L460.038 482.092L454.441 548.782L432.451 485.321L418.556 550.875L404.661 485.321L382.671 548.782L377.074 482.092L347.31 542.535L350.092 475.68L312.988 532.224L324.109 466.18L280.205 518L299.503 453.73L249.439 500.071L276.632 438.512L221.14 478.697L255.832 420.747L195.72 454.191L237.404 400.694L173.548 426.909L221.618 378.646L154.95 397.25L208.703 354.925L140.196 365.646L198.849 329.876L129.5 332.558L192.198 303.864L123.02 298.469L188.849 277.27L120.85 263.875L188.849 250.479L123.02 229.28L192.198 223.885L129.5 195.191L198.849 197.873L140.196 162.103L208.703 172.824L154.95 130.499L221.618 149.103L173.548 100.84L237.404 127.055L195.72 73.5583L255.832 107.002L221.14 49.0519L276.632 89.2371L249.439 27.6781L299.503 74.0186L280.205 9.74863L324.109 61.5686L312.988 -4.47516L350.092 52.0687L347.31 -14.7858L377.074 45.6575L382.671 -21.0329L404.661 42.4283L418.556 -23.1255Z" fill="#88AFBB"/>
<path id="Star 1" d="M418.556 38.8745L429.449 90.2668L446.688 40.515L451.076 92.7984L474.411 45.4126L472.229 97.8247L501.318 53.4958L492.6 105.272L527.019 64.6469L511.891 115.033L551.139 78.7031L529.82 126.964L573.324 95.4596L546.127 140.891L593.254 114.672L560.574 156.612L610.635 136.06L572.95 173.897L625.216 159.312L583.075 192.493L636.783 184.088L590.8 212.131L645.167 210.028L596.014 232.524L650.248 236.754L598.64 253.373L651.949 263.875L598.64 274.376L650.248 290.995L596.014 295.225L645.167 317.721L590.8 315.618L636.783 343.661L583.075 335.256L625.216 368.437L572.95 353.852L610.635 391.689L560.574 371.137L593.254 413.077L546.127 386.858L573.324 432.289L529.82 400.785L551.139 449.046L511.891 412.716L527.019 463.102L492.6 422.477L501.318 474.253L472.229 429.924L474.411 482.336L451.076 434.951L446.688 487.234L429.449 437.482L418.556 488.875L407.663 437.482L390.423 487.234L386.036 434.951L362.701 482.336L364.882 429.924L335.793 474.253L344.512 422.477L310.093 463.102L325.221 412.716L285.973 449.046L307.292 400.785L263.787 432.289L290.985 386.858L243.858 413.077L276.538 371.137L226.477 391.689L264.162 353.852L211.896 368.437L254.037 335.256L200.329 343.661L246.312 315.618L191.944 317.721L241.098 295.225L186.864 290.995L238.472 274.376L185.162 263.875L238.472 253.373L186.864 236.754L241.098 232.524L191.944 210.028L246.312 212.131L200.329 184.088L254.037 192.493L211.896 159.312L264.162 173.897L226.477 136.06L276.538 156.612L243.858 114.672L290.985 140.891L263.787 95.4596L307.292 126.964L285.973 78.7031L325.221 115.033L310.093 64.6469L344.512 105.272L335.793 53.4958L364.882 97.8247L362.701 45.4126L386.036 92.7984L390.423 40.515L407.663 90.2668L418.556 38.8745Z" fill="#618591"/>
</g>
<ellipse id="Pupil" cx="418.556" cy="263.875" rx="147.297" ry="142" fill="#353535"/>
</g>
<g id="Glare">
<ellipse id="Ellipse 3" cx="316.9" cy="188.875" rx="77.7978" ry="75" fill="white"/>
<ellipse id="Ellipse 4" cx="418.037" cy="268.375" rx="38.8989" ry="37.5" fill="white"/>
</g>
</g>
</g>
</svg>