<svg width="351" height="169" viewBox="0 0 351 169" fill="none" xmlns="http://www.w3.org/2000/svg">
<path d="M136.993 74.2612C136.993 80.5537 135.939 85.2269 133.832 88.2806C131.776 91.4269 128.538 93 124.117 93H108.542V82.5896H124.888C126.738 82.5896 128.126 81.9418 129.052 80.6463C129.977 79.3508 130.439 77.6851 130.439 75.6493V71.2075C130.439 69.0791 129.977 67.4134 129.052 66.2105C128.126 64.9149 126.738 64.2672 124.888 64.2672H112.012V45.1119C110.315 43.4463 109.056 41.0403 108.234 37.894C107.411 34.7478 107 30.6761 107 25.6791V22.209C107 14.4358 108.054 8.79104 110.161 5.27463C112.32 1.75821 115.636 0 120.108 0H135.837V25.6791C135.837 32.6194 134.783 38.0791 132.675 42.0582C130.568 45.9448 127.767 47.8881 124.271 47.8881H118.566V53.8567H124.117C128.538 53.8567 131.776 55.4299 133.832 58.5761C135.939 61.6299 136.993 66.303 136.993 72.5955V74.2612ZM124.271 37.4776C125.865 37.4776 127.073 36.5522 127.895 34.7015C128.717 32.8507 129.18 30.9075 129.283 28.8716V10.4104H119.337C117.435 10.4104 115.995 11.197 115.019 12.7701C114.042 14.3433 113.554 16.5642 113.554 19.4328V28.4552C113.554 31.3239 114.042 33.5448 115.019 35.1179C115.995 36.691 117.435 37.4776 119.337 37.4776H124.271Z" fill="#585858"/>
<path d="M147.028 0H153.196V3.74776C154.892 1.24925 156.948 0 159.364 0H164.993V11.1045H158.593C156.897 11.1045 155.637 12.1224 154.815 14.1582C153.993 16.194 153.581 18.1836 153.581 20.1269V69.403H147.028V0Z" fill="#585858"/>
<path d="M198.021 47.194C198.021 54.9672 196.941 60.6119 194.782 64.1284C192.675 67.6448 189.385 69.403 184.913 69.403H183.911C179.439 69.403 176.123 67.6448 173.964 64.1284C171.857 60.6119 170.803 54.9672 170.803 47.194V22.209C170.803 14.4358 171.857 8.79104 173.964 5.27463C176.123 1.75821 179.439 0 183.911 0H184.913C189.385 0 192.675 1.75821 194.782 5.27463C196.941 8.79104 198.021 14.4358 198.021 22.209V47.194ZM191.467 19.4328C191.467 16.5642 190.978 14.3433 190.002 12.7701C189.025 11.197 187.586 10.4104 185.684 10.4104H183.14C181.238 10.4104 179.798 11.197 178.822 12.7701C177.845 14.3433 177.357 16.5642 177.357 19.4328V49.9702C177.357 52.8388 177.845 55.0597 178.822 56.6328C179.798 58.206 181.238 58.9925 183.14 58.9925H185.684C187.586 58.9925 189.025 58.206 190.002 56.6328C190.978 55.0597 191.467 52.8388 191.467 49.9702V19.4328Z" fill="#585858"/>
<path d="M228.798 66.2105C227.101 68.3388 225.045 69.403 222.629 69.403H221.55C217.386 69.403 214.276 67.6448 212.22 64.1284C210.216 60.6119 209.213 54.9672 209.213 47.194V0H215.767V49.9702C215.767 52.7463 216.204 54.9672 217.078 56.6328C218.003 58.206 219.237 58.9925 220.779 58.9925H223.4C225.045 58.9925 226.253 58.2522 227.024 56.7716C227.847 55.291 228.309 53.6254 228.412 51.7746V0H234.966V69.403H228.798V66.2105Z" fill="#585858"/>
<path d="M247.322 0H253.49V3.33134C255.084 1.11045 257.14 0 259.659 0H260.892C265.416 0 268.731 1.75821 270.839 5.27463C272.946 8.69851 274 14.3433 274 22.209V47.194C274 54.9672 272.921 60.6119 270.762 64.1284C268.654 67.6448 265.364 69.403 260.892 69.403H253.876V93H247.322V0ZM258.888 10.4104C257.191 10.4104 255.932 11.2433 255.11 12.909C254.287 14.4821 253.876 16.194 253.876 18.0448V58.9925H261.663C263.565 58.9925 265.005 58.206 265.981 56.6328C266.958 55.0597 267.446 52.8388 267.446 49.9702V19.4328C267.446 16.5642 266.958 14.3433 265.981 12.7701C265.005 11.197 263.565 10.4104 261.663 10.4104H258.888Z" fill="#585858"/>
<path d="M27.7428 169V18.3486H0V0H70.6656V18.3486H42.9228V169H27.7428Z" fill="#618591"/>
<path d="M92.0129 0V114.92C95.5026 111.701 99.8647 110.091 105.099 110.091H113.125C122.547 110.091 129.527 113.15 134.063 119.266C138.716 125.382 141.043 135.2 141.043 148.72V169H126.212V143.891C126.212 139.063 125.165 135.281 123.071 132.544C121.093 129.647 118.36 128.199 114.87 128.199H103.354C99.632 128.199 96.8403 129.567 94.9791 132.303C93.118 134.878 92.1292 137.695 92.0129 140.753V169H77.1819V0H92.0129Z" fill="#618591"/>
<path d="M186.309 74.1187V95.8472L169.733 95.8472V74.1187H186.309ZM160 125V106.893H186.309V150.893H200V169H171.478V125H160Z" fill="#618591"/>
<path d="M301.573 149.686V169H286.741V0H301.573V123.611L328.966 95.8472H347.636L317.276 128.199L350.079 169H331.758L306.109 142.443L301.573 149.686Z" fill="#618591"/>
<path d="M225.831 107V114.92C229.321 111.701 233.683 110.091 238.917 110.091H246.944C256.366 110.091 263.345 113.15 267.881 119.266C272.534 125.382 274.861 135.2 274.861 148.72V169H260.03V143.891C260.03 139.063 258.983 135.281 256.889 132.544C254.912 129.647 252.178 128.199 248.688 128.199H237.172C233.45 128.199 230.658 129.567 228.797 132.303C226.936 134.878 225.947 137.695 225.831 140.753V169H211V107H225.831Z" fill="#618591"/>
</svg>
